<?xml version="1.0" standalone="no"?><!DOCTYPE svg PUBLIC "-//W3C//DTD SVG 1.1//EN" "http://www.w3.org/Graphics/SVG/1.1/DTD/svg11.dtd"><svg class="icon" width="128px" height="128.00px" viewBox="0 0 1024 1024" version="1.1" xmlns="http://www.w3.org/2000/svg"><path fill="#dab649" d="M382.914433 758.700019C382.839457 758.700019 382.764483 758.698916 382.688406 758.698916 377.303521 758.638276 372.164501 756.434265 368.408089 752.575315L174.700958 553.547243C166.903676 545.536065 167.077879 532.721045 175.089059 524.923764 183.100238 517.12648 195.915257 517.299582 203.71254 525.311864L383.234173 709.765233 772.8756 326.90343C780.849292 319.068659 793.664311 319.180018 801.501286 327.154813 809.336057 335.128505 809.223596 347.944628 801.248801 355.780499L397.101031 752.897262C393.313748 756.61839 388.217731 758.700019 382.914433 758.700019L382.914433 758.700019ZM513.943404 1018.400698C446.327994 1018.400698 380.724753 1005.153476 318.955102 979.027285 259.303462 953.796372 205.73463 917.679913 159.737056 871.683442 113.739482 825.68697 77.624126 772.117036 52.393212 712.466499 26.267022 650.695745 13.0198 585.093605 13.0198 517.478195 13.0198 449.862788 26.267022 384.259544 52.393212 322.489894 77.624126 262.837152 113.739482 209.269421 159.737056 163.271847 205.73463 117.274275 259.303462 81.158917 318.955102 55.928004 380.724753 29.801813 446.327996 16.554592 513.943404 16.554592 581.558811 16.554592 647.162055 29.801813 708.931705 55.928004 768.584447 81.158917 822.152177 117.274273 868.149752 163.271847 914.147324 209.269421 950.263783 262.838253 975.493594 322.489894 1001.619784 384.258441 1014.867007 449.862788 1014.867007 517.478195 1014.867007 585.093603 1001.619784 650.696844 975.493594 712.466497 950.262682 772.118135 914.146222 825.685866 868.149752 871.68344 822.153279 917.681013 768.583344 953.797472 708.931705 979.027283 647.162055 1005.154578 581.558811 1018.400698 513.943404 1018.400698L513.943404 1018.400698ZM513.943404 57.038277C451.775728 57.038277 391.479093 69.209404 334.727178 93.214275 279.900329 116.403252 230.656828 149.605654 188.364947 191.898637 146.071965 234.190516 112.869564 283.434017 89.680586 338.260869 65.675715 395.012784 53.504589 455.31052 53.504589 517.478195 53.504589 579.64587 65.675715 639.943609 89.680586 696.695524 112.869564 751.521272 146.071965 800.764773 188.364947 843.056653 230.656828 885.348533 279.900329 918.552036 334.727178 941.741014 391.479093 965.744781 451.776832 977.917011 513.943404 977.917011 576.109976 977.917011 636.408815 965.745885 693.16073 941.741014 747.987581 918.552036 797.231083 885.349635 839.522962 843.056653 881.814844 800.76367 915.018347 751.521272 938.207324 696.695524 962.211092 639.942506 974.383321 579.64587 974.383321 517.478195 974.383321 455.31052 962.212195 395.012784 938.207324 338.260869 915.018347 283.434017 881.815945 234.190516 839.522962 191.898637 797.231083 149.605654 747.987581 116.403252 693.16073 93.214275 636.408815 69.209404 576.109976 57.038277 513.943404 57.038277L513.943404 57.038277Z" /></svg>